<svg width="14" height="14" viewBox="0 0 14 14" fill="none" xmlns="http://www.w3.org/2000/svg">
<path fill-rule="evenodd" clip-rule="evenodd" d="M4.66672 0V0.777778H0.777832V2.33333H1.55561V12.4444C1.55561 13.3036 2.25206 14 3.11117 14H10.8889C11.7481 14 12.4445 13.3036 12.4445 12.4444V2.33333H13.2223V0.777778H9.33339V0H4.66672ZM3.11117 2.33333H10.8889V12.4444H3.11117V2.33333ZM4.66672 3.88889V10.8889H6.22228V3.88889H4.66672ZM7.77783 3.88889V10.8889H9.33339V3.88889H7.77783Z" fill="#8F92A1"/>
<mask id="mask0" mask-type="alpha" maskUnits="userSpaceOnUse" x="0" y="0" width="14" height="14">
<path fill-rule="evenodd" clip-rule="evenodd" d="M4.66672 0V0.777778H0.777832V2.33333H1.55561V12.4444C1.55561 13.3036 2.25206 14 3.11117 14H10.8889C11.7481 14 12.4445 13.3036 12.4445 12.4444V2.33333H13.2223V0.777778H9.33339V0H4.66672ZM3.11117 2.33333H10.8889V12.4444H3.11117V2.33333ZM4.66672 3.88889V10.8889H6.22228V3.88889H4.66672ZM7.77783 3.88889V10.8889H9.33339V3.88889H7.77783Z" fill="white"/>
</mask>
<g mask="url(#mask0)">
</g>
</svg>
