<svg width="14" height="14" viewBox="0 0 14 14" fill="none" xmlns="http://www.w3.org/2000/svg">
<path fill-rule="evenodd" clip-rule="evenodd" d="M14 6.50511C14 5.79874 13.4273 5.23238 12.7273 5.23238H8.70546L9.31637 2.3242C9.3291 2.26056 9.33546 2.19056 9.33546 2.12056C9.33546 1.85965 9.22728 1.61783 9.05546 1.44601L8.38092 0.777832L4.19364 4.96511C3.95819 5.20056 3.81819 5.51874 3.81819 5.86874V12.2324C3.81819 12.9353 4.38801 13.5051 5.09092 13.5051H10.8182C11.3464 13.5051 11.7982 13.1869 11.9891 12.7287L13.9109 8.24238C13.9682 8.09601 14 7.94329 14 7.77783V6.50511ZM0 13.5051H2.54545V5.86874H0V13.5051Z" fill="#1E1F20"/>
</svg>
