<svg width="22" height="22" viewBox="0 0 22 22" fill="none" xmlns="http://www.w3.org/2000/svg">
<path fill-rule="evenodd" clip-rule="evenodd" d="M4.88867 14.6667H7.33312C7.33312 15.9867 9.00756 17.1111 10.9998 17.1111C12.992 17.1111 14.6664 15.9867 14.6664 14.6667C14.6664 13.3222 13.3953 12.8333 10.7064 12.1856C8.11534 11.5378 4.88867 10.7311 4.88867 7.33333C4.88867 5.14556 6.68534 3.28778 9.16645 2.66444V0H12.8331V2.66444C15.3142 3.28778 17.1109 5.14556 17.1109 7.33333H14.6664C14.6664 6.01333 12.992 4.88889 10.9998 4.88889C9.00756 4.88889 7.33312 6.01333 7.33312 7.33333C7.33312 8.67778 8.60423 9.16667 11.2931 9.81444C13.8842 10.4622 17.1109 11.2689 17.1109 14.6667C17.1109 16.8544 15.3142 18.7122 12.8331 19.3356V22H9.16645V19.3356C6.68534 18.7122 4.88867 16.8544 4.88867 14.6667Z" fill="white"/>
<mask id="mask0" mask-type="alpha" maskUnits="userSpaceOnUse" x="4" y="0" width="14" height="22">
<path fill-rule="evenodd" clip-rule="evenodd" d="M4.88867 14.6667H7.33312C7.33312 15.9867 9.00756 17.1111 10.9998 17.1111C12.992 17.1111 14.6664 15.9867 14.6664 14.6667C14.6664 13.3222 13.3953 12.8333 10.7064 12.1856C8.11534 11.5378 4.88867 10.7311 4.88867 7.33333C4.88867 5.14556 6.68534 3.28778 9.16645 2.66444V0H12.8331V2.66444C15.3142 3.28778 17.1109 5.14556 17.1109 7.33333H14.6664C14.6664 6.01333 12.992 4.88889 10.9998 4.88889C9.00756 4.88889 7.33312 6.01333 7.33312 7.33333C7.33312 8.67778 8.60423 9.16667 11.2931 9.81444C13.8842 10.4622 17.1109 11.2689 17.1109 14.6667C17.1109 16.8544 15.3142 18.7122 12.8331 19.3356V22H9.16645V19.3356C6.68534 18.7122 4.88867 16.8544 4.88867 14.6667Z" fill="white"/>
</mask>
<g mask="url(#mask0)">
</g>
</svg>
