<svg width="28" height="27" viewBox="0 0 28 27" fill="none" xmlns="http://www.w3.org/2000/svg">
<path fill-rule="evenodd" clip-rule="evenodd" d="M17.8182 2.11108C15.0065 2.11108 12.7272 4.39036 12.7272 7.20199C12.7272 10.0136 15.0065 12.2929 17.8182 12.2929C20.6298 12.2929 22.9091 10.0136 22.9091 7.20199C22.9091 4.39036 20.6298 2.11108 17.8182 2.11108ZM17.8182 4.52925C19.2945 4.52925 20.4909 5.72562 20.4909 7.20198C20.4909 8.67834 19.2945 9.87471 17.8182 9.87471C16.3421 9.87471 15.1454 8.67809 15.1454 7.20198C15.1454 5.72587 16.3421 4.52925 17.8182 4.52925ZM3.81818 5.92927V9.74745H0V12.2929H3.81818V16.1111H6.36364V12.2929H10.1818V9.74745H6.36364V5.92927H3.81818ZM17.8182 13.5656C14.42 13.5656 7.63635 15.2584 7.63635 18.6565V22.4747H28V18.6565C28 15.2584 21.2163 13.5656 17.8182 13.5656ZM17.8182 15.9838C21.5982 15.9838 25.5818 17.842 25.5818 18.6565V20.0565H10.0545V18.6565C10.0545 17.842 14 15.9838 17.8182 15.9838Z" fill="#8F92A1"/>
<mask id="mask0" mask-type="alpha" maskUnits="userSpaceOnUse" x="0" y="2" width="28" height="21">
<path fill-rule="evenodd" clip-rule="evenodd" d="M17.8182 2.11108C15.0065 2.11108 12.7272 4.39036 12.7272 7.20199C12.7272 10.0136 15.0065 12.2929 17.8182 12.2929C20.6298 12.2929 22.9091 10.0136 22.9091 7.20199C22.9091 4.39036 20.6298 2.11108 17.8182 2.11108ZM17.8182 4.52925C19.2945 4.52925 20.4909 5.72562 20.4909 7.20198C20.4909 8.67834 19.2945 9.87471 17.8182 9.87471C16.3421 9.87471 15.1454 8.67809 15.1454 7.20198C15.1454 5.72587 16.3421 4.52925 17.8182 4.52925ZM3.81818 5.92927V9.74745H0V12.2929H3.81818V16.1111H6.36364V12.2929H10.1818V9.74745H6.36364V5.92927H3.81818ZM17.8182 13.5656C14.42 13.5656 7.63635 15.2584 7.63635 18.6565V22.4747H28V18.6565C28 15.2584 21.2163 13.5656 17.8182 13.5656ZM17.8182 15.9838C21.5982 15.9838 25.5818 17.842 25.5818 18.6565V20.0565H10.0545V18.6565C10.0545 17.842 14 15.9838 17.8182 15.9838Z" fill="white"/>
</mask>
<g mask="url(#mask0)">
</g>
</svg>
