<svg width="20" height="18" viewBox="0 0 20 18" fill="none" xmlns="http://www.w3.org/2000/svg">
<path fill-rule="evenodd" clip-rule="evenodd" d="M10 12.39L6.24 14.66L7.23 10.38L3.91 7.5L8.29 7.13L10 3.09L11.71 7.13L16.09 7.5L12.77 10.38L13.76 14.66L10 12.39ZM20 6.24L12.81 5.63L10 -1L7.19 5.63L0 6.24L5.45 10.97L3.82 18L10 14.27L16.18 18L14.54 10.97L20 6.24Z" fill="#8F92A1"/>
<mask id="mask0" mask-type="alpha" maskUnits="userSpaceOnUse" x="0" y="-1" width="20" height="19">
<path fill-rule="evenodd" clip-rule="evenodd" d="M10 12.39L6.24 14.66L7.23 10.38L3.91 7.5L8.29 7.13L10 3.09L11.71 7.13L16.09 7.5L12.77 10.38L13.76 14.66L10 12.39ZM20 6.24L12.81 5.63L10 -1L7.19 5.63L0 6.24L5.45 10.97L3.82 18L10 14.27L16.18 18L14.54 10.97L20 6.24Z" fill="white"/>
</mask>
<g mask="url(#mask0)">
</g>
</svg>
