<svg width="14" height="14" viewBox="0 0 14 14" fill="none" xmlns="http://www.w3.org/2000/svg">
<path fill-rule="evenodd" clip-rule="evenodd" d="M7.16096 11.4294L7.09711 11.4994L7.02686 11.4294C3.99371 8.41243 1.98864 6.41743 1.98864 4.39443C1.98864 2.99443 2.94648 1.94443 4.2236 1.94443C5.20697 1.94443 6.16481 2.64443 6.50325 3.59643H7.69096C8.0294 2.64443 8.98724 1.94443 9.97062 1.94443C11.2477 1.94443 12.2056 2.99443 12.2056 4.39443C12.2056 6.41743 10.2005 8.41243 7.16096 11.4294ZM9.97064 0.544434C8.85955 0.544434 7.79315 1.11143 7.09713 2.00043C6.4011 1.11143 5.33471 0.544434 4.22362 0.544434C2.25686 0.544434 0.711548 2.23143 0.711548 4.39443C0.711548 7.03343 2.88264 9.19643 6.17122 12.4654L7.09713 13.3894L8.02303 12.4654C11.3116 9.19643 13.4827 7.03343 13.4827 4.39443C13.4827 2.23143 11.9374 0.544434 9.97064 0.544434Z" fill="white"/>
</svg>
