<svg width="22" height="22" viewBox="0 0 22 22" fill="none" xmlns="http://www.w3.org/2000/svg">
<path fill-rule="evenodd" clip-rule="evenodd" d="M19.569 14.751C20.614 12.364 20.614 9.625 19.569 7.249L16.555 8.613C17.215 10.131 17.215 11.858 16.566 13.387L19.569 14.751ZM14.762 2.431C12.375 1.386 9.636 1.386 7.249 2.431L8.613 5.434C10.142 4.785 11.869 4.785 13.398 5.445L14.762 2.431ZM2.431 7.238C1.386 9.636 1.386 12.364 2.431 14.762L5.445 13.387C4.785 11.869 4.785 10.131 5.445 8.602L2.431 7.238ZM7.249 19.569C9.636 20.614 12.375 20.614 14.762 19.558L13.398 16.555C11.88 17.215 10.142 17.215 8.624 16.566L7.249 19.569ZM11 0C13.9174 0 16.7153 1.15893 18.7782 3.22183C20.8411 5.28473 22 8.08262 22 11C22 17.0751 17.0751 22 11 22C8.08262 22 5.28473 20.8411 3.22183 18.7782C1.15893 16.7153 0 13.9174 0 11C0 8.08262 1.15893 5.28473 3.22183 3.22183C5.28473 1.15893 8.08262 0 11 0ZM11 6.6C8.56995 6.6 6.6 8.56995 6.6 11C6.6 13.4301 8.56995 15.4 11 15.4C13.4301 15.4 15.4 13.4301 15.4 11C15.4 8.56995 13.4301 6.6 11 6.6Z" fill="white"/>
<mask id="mask0" mask-type="alpha" maskUnits="userSpaceOnUse" x="0" y="0" width="22" height="22">
<path fill-rule="evenodd" clip-rule="evenodd" d="M19.569 14.751C20.614 12.364 20.614 9.625 19.569 7.249L16.555 8.613C17.215 10.131 17.215 11.858 16.566 13.387L19.569 14.751ZM14.762 2.431C12.375 1.386 9.636 1.386 7.249 2.431L8.613 5.434C10.142 4.785 11.869 4.785 13.398 5.445L14.762 2.431ZM2.431 7.238C1.386 9.636 1.386 12.364 2.431 14.762L5.445 13.387C4.785 11.869 4.785 10.131 5.445 8.602L2.431 7.238ZM7.249 19.569C9.636 20.614 12.375 20.614 14.762 19.558L13.398 16.555C11.88 17.215 10.142 17.215 8.624 16.566L7.249 19.569ZM11 0C13.9174 0 16.7153 1.15893 18.7782 3.22183C20.8411 5.28473 22 8.08262 22 11C22 17.0751 17.0751 22 11 22C8.08262 22 5.28473 20.8411 3.22183 18.7782C1.15893 16.7153 0 13.9174 0 11C0 8.08262 1.15893 5.28473 3.22183 3.22183C5.28473 1.15893 8.08262 0 11 0ZM11 6.6C8.56995 6.6 6.6 8.56995 6.6 11C6.6 13.4301 8.56995 15.4 11 15.4C13.4301 15.4 15.4 13.4301 15.4 11C15.4 8.56995 13.4301 6.6 11 6.6Z" fill="white"/>
</mask>
<g mask="url(#mask0)">
</g>
</svg>
