<svg width="22" height="22" viewBox="0 0 22 22" fill="none" xmlns="http://www.w3.org/2000/svg">
<path fill-rule="evenodd" clip-rule="evenodd" d="M13.0952 6.46027H11.5238V11.6984L16.0076 14.3593L16.7619 13.0917L13.0952 10.9126V6.46027ZM12.5714 1.22217C7.36417 1.22217 3.14286 5.44348 3.14286 10.6507H0L4.14857 14.8726L8.38095 10.6507H5.23809C5.23809 6.60065 8.52134 3.31741 12.5714 3.31741C16.6215 3.31741 19.9048 6.60065 19.9048 10.6507C19.9048 14.7008 16.6215 17.9841 12.5714 17.9841C10.5495 17.9841 8.71619 17.1565 7.39619 15.826L5.90857 17.3136C7.61619 19.0317 9.95238 20.0793 12.5714 20.0793C17.7787 20.0793 22 15.858 22 10.6507C22 5.44348 17.7787 1.22217 12.5714 1.22217Z" fill="white"/>
<mask id="mask0" mask-type="alpha" maskUnits="userSpaceOnUse" x="0" y="1" width="22" height="20">
<path fill-rule="evenodd" clip-rule="evenodd" d="M13.0952 6.46027H11.5238V11.6984L16.0076 14.3593L16.7619 13.0917L13.0952 10.9126V6.46027ZM12.5714 1.22217C7.36417 1.22217 3.14286 5.44348 3.14286 10.6507H0L4.14857 14.8726L8.38095 10.6507H5.23809C5.23809 6.60065 8.52134 3.31741 12.5714 3.31741C16.6215 3.31741 19.9048 6.60065 19.9048 10.6507C19.9048 14.7008 16.6215 17.9841 12.5714 17.9841C10.5495 17.9841 8.71619 17.1565 7.39619 15.826L5.90857 17.3136C7.61619 19.0317 9.95238 20.0793 12.5714 20.0793C17.7787 20.0793 22 15.858 22 10.6507C22 5.44348 17.7787 1.22217 12.5714 1.22217Z" fill="white"/>
</mask>
<g mask="url(#mask0)">
</g>
</svg>
