<svg width="14" height="14" viewBox="0 0 14 14" fill="none" xmlns="http://www.w3.org/2000/svg">
<path fill-rule="evenodd" clip-rule="evenodd" d="M8.33333 4.11117H7.33333V7.4445L10.1867 9.13784L10.6667 8.33117L8.33333 6.9445V4.11117ZM8 0.777832C4.68629 0.777832 2 3.46412 2 6.77783H0L2.64 9.4645L5.33333 6.77783H3.33333C3.33333 4.2005 5.42267 2.11117 8 2.11117C10.5773 2.11117 12.6667 4.2005 12.6667 6.77783C12.6667 9.35516 10.5773 11.4445 8 11.4445C6.71333 11.4445 5.54667 10.9178 4.70667 10.0712L3.76 11.0178C4.84667 12.1112 6.33333 12.7778 8 12.7778C11.3137 12.7778 14 10.0915 14 6.77783C14 3.46412 11.3137 0.777832 8 0.777832Z" fill="#1E1F20"/>
<mask id="mask0" mask-type="alpha" maskUnits="userSpaceOnUse" x="0" y="0" width="14" height="13">
<path fill-rule="evenodd" clip-rule="evenodd" d="M8.33333 4.11117H7.33333V7.4445L10.1867 9.13784L10.6667 8.33117L8.33333 6.9445V4.11117ZM8 0.777832C4.68629 0.777832 2 3.46412 2 6.77783H0L2.64 9.4645L5.33333 6.77783H3.33333C3.33333 4.2005 5.42267 2.11117 8 2.11117C10.5773 2.11117 12.6667 4.2005 12.6667 6.77783C12.6667 9.35516 10.5773 11.4445 8 11.4445C6.71333 11.4445 5.54667 10.9178 4.70667 10.0712L3.76 11.0178C4.84667 12.1112 6.33333 12.7778 8 12.7778C11.3137 12.7778 14 10.0915 14 6.77783C14 3.46412 11.3137 0.777832 8 0.777832Z" fill="white"/>
</mask>
<g mask="url(#mask0)">
</g>
</svg>
