<svg xmlns="http://www.w3.org/2000/svg" width="16.395" height="14.917" viewBox="0 0 16.395 14.917"><defs><style>.a{fill:#efbb46;}</style></defs><g transform="translate(0 -20.359)"><path class="a" d="M16.2,32.953,9.54,21.133a1.55,1.55,0,0,0-2.684,0L.2,32.953A1.56,1.56,0,0,0,1.54,35.276H14.805A1.576,1.576,0,0,0,16.2,32.953ZM1.54,33.728,8.2,21.907l6.659,11.82Z" transform="translate(0)"/><path class="a" d="M195.909,179.465l.413,2.736a.671.671,0,0,0,.671.568.714.714,0,0,0,.671-.568l.413-2.736a1.074,1.074,0,0,0-1.084-1.239A1.1,1.1,0,0,0,195.909,179.465Z" transform="translate(-188.795 -152.138)"/><circle class="a" cx="0.619" cy="0.619" r="0.619" transform="translate(7.322 31.818) rotate(-45)"/></g></svg>