<svg width="22" height="22" viewBox="0 0 22 22" fill="none" xmlns="http://www.w3.org/2000/svg">
<path fill-rule="evenodd" clip-rule="evenodd" d="M10.8253 16.7619C9.66243 16.7619 8.73005 15.819 8.73005 14.6667C8.73005 13.5038 9.66243 12.5714 10.8253 12.5714C11.9825 12.5714 12.9205 13.5095 12.9205 14.6667C12.9205 15.8238 11.9825 16.7619 10.8253 16.7619ZM17.111 19.9048V9.42857H4.53957V19.9048H17.111ZM17.111 7.33333C18.2682 7.33333 19.2062 8.2714 19.2062 9.42857V19.9048C19.2062 21.0619 18.2682 22 17.111 22H4.53957C3.37672 22 2.44434 21.0571 2.44434 19.9048V9.42857C2.44434 8.26571 3.37672 7.33333 4.53957 7.33333H5.58719V5.23809C5.58719 2.34518 7.93237 0 10.8253 0C12.2145 0 13.5468 0.551869 14.5292 1.5342C15.5115 2.51654 16.0634 3.84887 16.0634 5.23809V7.33333H17.111ZM10.8253 2.09524C9.08954 2.09524 7.68243 3.50234 7.68243 5.2381V7.33333H13.9681V5.2381C13.9681 3.50234 12.561 2.09524 10.8253 2.09524Z" fill="white"/>
<mask id="mask0" mask-type="alpha" maskUnits="userSpaceOnUse" x="2" y="0" width="18" height="22">
<path fill-rule="evenodd" clip-rule="evenodd" d="M10.8253 16.7619C9.66243 16.7619 8.73005 15.819 8.73005 14.6667C8.73005 13.5038 9.66243 12.5714 10.8253 12.5714C11.9825 12.5714 12.9205 13.5095 12.9205 14.6667C12.9205 15.8238 11.9825 16.7619 10.8253 16.7619ZM17.111 19.9048V9.42857H4.53957V19.9048H17.111ZM17.111 7.33333C18.2682 7.33333 19.2062 8.2714 19.2062 9.42857V19.9048C19.2062 21.0619 18.2682 22 17.111 22H4.53957C3.37672 22 2.44434 21.0571 2.44434 19.9048V9.42857C2.44434 8.26571 3.37672 7.33333 4.53957 7.33333H5.58719V5.23809C5.58719 2.34518 7.93237 0 10.8253 0C12.2145 0 13.5468 0.551869 14.5292 1.5342C15.5115 2.51654 16.0634 3.84887 16.0634 5.23809V7.33333H17.111ZM10.8253 2.09524C9.08954 2.09524 7.68243 3.50234 7.68243 5.2381V7.33333H13.9681V5.2381C13.9681 3.50234 12.561 2.09524 10.8253 2.09524Z" fill="white"/>
</mask>
<g mask="url(#mask0)">
</g>
</svg>
