<svg xmlns="http://www.w3.org/2000/svg" width="23.983" height="32" viewBox="0 0 23.983 32">
  <g id="logo_icon" data-name="logo icon" transform="translate(-30 -21)">
    <g id="Group_331" data-name="Group 331" transform="translate(30 21)">
      <path id="Path_313" data-name="Path 313" d="M1337.49,286.977" transform="translate(-1331.077 -259.274)" fill="#17cfe0" stroke="#fff" stroke-miterlimit="10" stroke-width="3"/>
      <path id="Path_314" data-name="Path 314" d="M1346.693,259.814c.944-2.361.77-3.084-.894-5.461a31.751,31.751,0,0,1-2.349-3.648.569.569,0,0,0-.86-.217l-3.075,2.306a.173.173,0,0,0-.014.267c1.477,1.277,4.213,1.1,6.059,2.486,1.79,1.343,1.258,3.942,1.133,4.267" transform="translate(-1332.245 -237.438)" fill="#17cfe0"/>
      <path id="Path_315" data-name="Path 315" d="M1338.732,223.858a2.444,2.444,0,0,1-1.941.852c-1.115-.515-1.7-2.087-1.7-3.8a3.341,3.341,0,0,1,.948-2.564,16.1,16.1,0,0,0-.346,31.995c-4.882-4.238-.583-8.856-.583-8.856s0-2.635-.956-3.593a5.253,5.253,0,0,0-3.822-1.2c-1.433,0-4.181-.6-4.181-2.036s1.433-3.113,2.389-4.311A8.078,8.078,0,0,1,1333.8,227c2-.334,2.371-1.249,2.414-1.773a3.074,3.074,0,0,0,2.519-1.368" transform="translate(-1321.559 -218.349)" fill="#17cfe0"/>
      <path id="Path_316" data-name="Path 316" d="M1356.431,273.827l-.014.033s.005-.012.014-.033Z" transform="translate(-1342.386 -251.44)" fill="#17cfe0"/>
      <path id="Path_317" data-name="Path 317" d="M1365.811,218.591a2.791,2.791,0,0,1,.892,1.335,4.207,4.207,0,0,1,.177,1.64,4.73,4.73,0,0,1-1.434,3l.123-.238a6.274,6.274,0,0,0,.123,1.458,2.4,2.4,0,0,0,.548,1.182,1.469,1.469,0,0,0,.5.305c.111.046.23.088.381.157a1.377,1.377,0,0,1,.484.356,2.378,2.378,0,0,1,.424.912,1,1,0,0,0,.3.389,6.182,6.182,0,0,1,1.206,1.2,2.731,2.731,0,0,1,.386.905,3.547,3.547,0,0,1,.076.94,4.07,4.07,0,0,1-.472,1.761,4.4,4.4,0,0,1-.509.759,3.79,3.79,0,0,1-.695.652l.266-.558a3.984,3.984,0,0,0,.729,1.883,21.8,21.8,0,0,1,1.32,1.991,6.108,6.108,0,0,1,.713,2.445,6.766,6.766,0,0,1-.269,2.5,4.92,4.92,0,0,1-1.371,2.125,13.217,13.217,0,0,1-1.944,1.408c-.332.207-.66.411-.983.624a6.852,6.852,0,0,0-.909.67,2.315,2.315,0,0,0-.564,2.093,2.963,2.963,0,0,1-.15-1.177,2.232,2.232,0,0,1,.464-1.136,6.1,6.1,0,0,1,.883-.826c.3-.251.615-.493.922-.732a13.049,13.049,0,0,0,1.724-1.482,4.221,4.221,0,0,0,1.028-1.832,6.461,6.461,0,0,0,.118-2.139,4.982,4.982,0,0,0-.662-1.994c-.35-.62-.829-1.2-1.3-1.883a5.191,5.191,0,0,1-.952-2.431l-.032-.341.3-.217a2.882,2.882,0,0,0,.451-.424,3.2,3.2,0,0,0,.374-.543,2.887,2.887,0,0,0,.351-1.254,1.948,1.948,0,0,0-.256-1.171,5.474,5.474,0,0,0-.993-1.034,1.993,1.993,0,0,1-.573-.9,1.612,1.612,0,0,0-.19-.526.383.383,0,0,0-.144-.109c-.085-.046-.211-.1-.338-.163a2.477,2.477,0,0,1-.792-.571,3.275,3.275,0,0,1-.69-1.673,6.316,6.316,0,0,1-.013-1.684l.017-.153.106-.085a4.143,4.143,0,0,0,.95-1.112,4.364,4.364,0,0,0,.539-1.4,4.186,4.186,0,0,0,.019-1.522A2.808,2.808,0,0,0,1365.811,218.591Z" transform="translate(-1347.39 -218.494)" fill="#17cfe0"/>
    </g>
  </g>
</svg>
