<svg width="38" height="38" viewBox="0 0 38 38" fill="none" xmlns="http://www.w3.org/2000/svg">
<rect width="38" height="38" rx="12" fill="#613BFF" fill-opacity="0.2"/>
<path fill-rule="evenodd" clip-rule="evenodd" d="M11.8 12H26.2C27.1941 12 28 12.8059 28 13.8V24.6C28 25.5941 27.1941 26.4 26.2 26.4H11.8C10.801 26.4 10 25.59 10 24.6V13.8C10 12.801 10.801 12 11.8 12ZM19 18.3L26.2 13.8H11.8L19 18.3ZM11.8 24.6H26.2V15.933L19 20.424L11.8 15.933V24.6Z" fill="#613BFF"/>
<mask id="mask0" mask-type="alpha" maskUnits="userSpaceOnUse" x="10" y="12" width="18" height="15">
<path fill-rule="evenodd" clip-rule="evenodd" d="M11.8 12H26.2C27.1941 12 28 12.8059 28 13.8V24.6C28 25.5941 27.1941 26.4 26.2 26.4H11.8C10.801 26.4 10 25.59 10 24.6V13.8C10 12.801 10.801 12 11.8 12ZM19 18.3L26.2 13.8H11.8L19 18.3ZM11.8 24.6H26.2V15.933L19 20.424L11.8 15.933V24.6Z" fill="white"/>
</mask>
<g mask="url(#mask0)">
</g>
</svg>
