<svg width="22" height="22" viewBox="0 0 22 22" fill="none" xmlns="http://www.w3.org/2000/svg">
<path fill-rule="evenodd" clip-rule="evenodd" d="M15.5222 16.5H5.62217V9.35C5.62217 6.6 7.82217 4.4 10.5722 4.4C13.3222 4.4 15.5222 6.6 15.5222 9.35V16.5ZM17.7222 15.4V9.35C17.7222 5.973 15.3682 3.146 12.2222 2.398V1.65C12.2222 0.73873 11.4834 0 10.5722 0C9.6609 0 8.92217 0.73873 8.92217 1.65V2.398C5.76517 3.146 3.42217 5.973 3.42217 9.35V15.4L1.22217 17.6V18.7H19.9222V17.6L17.7222 15.4ZM10.5722 22C11.7872 22 12.7722 21.015 12.7722 19.8H8.37217C8.37217 21.015 9.35714 22 10.5722 22Z" fill="white"/>
</svg>
