<svg xmlns="http://www.w3.org/2000/svg" width="20" height="14" viewBox="0 0 20 14"><defs><style>.a{fill:#d2d4df;}</style></defs><g transform="translate(0 -89.25)"><g transform="translate(0 89.25)"><path class="a" d="M10,89.25a10.721,10.721,0,0,0-10,7,10.721,10.721,0,0,0,10,7,10.721,10.721,0,0,0,10-7A10.721,10.721,0,0,0,10,89.25Zm0,11.667a4.668,4.668,0,1,1,4.545-4.667A4.562,4.562,0,0,1,10,100.917Zm0-7.467a2.8,2.8,0,1,0,2.727,2.8A2.715,2.715,0,0,0,10,93.45Z" transform="translate(0 -89.25)"/></g></g></svg>