<svg xmlns="http://www.w3.org/2000/svg" width="17.5" height="17.5" viewBox="0 0 17.5 17.5"><defs><style>.a,.b{fill:none;stroke:#fff;}.a{stroke-linecap:round;stroke-linejoin:round;stroke-width:1.5px;}</style></defs><g transform="translate(119.75 -0.25)"><g transform="translate(-119 1)"><path class="a" d="M-105.7,6.2l1.1-2.1L-106,2.7l-2.1,1.1a3.576,3.576,0,0,0-1.1-.4L-110,1h-2l-.8,2.3a4.181,4.181,0,0,0-1,.4l-2.1-1.1-1.5,1.5,1.1,2.1a4.181,4.181,0,0,0-.4,1L-119,8v2l2.3.8c.1.4.3.7.4,1.1l-1.1,2.1,1.4,1.4,2.1-1.1a3.589,3.589,0,0,0,1.1.4l.8,2.3h2l.8-2.3c.4-.1.7-.3,1.1-.4l2.1,1.1,1.4-1.4-1.1-2.1a3.575,3.575,0,0,0,.4-1.1l2.3-.8V8l-2.3-.8A4.176,4.176,0,0,0-105.7,6.2Z" transform="translate(119 -1)"/></g><path class="b" d="M-110,13.375a3.314,3.314,0,0,1-3.375-3.252q0-.062,0-.123a3.314,3.314,0,0,1,3.252-3.375H-110a3.314,3.314,0,0,1,3.375,3.252q0,.062,0,.123a3.314,3.314,0,0,1-3.252,3.375Q-109.938,13.377-110,13.375Z" transform="translate(-1 -1)"/></g></svg>