<svg xmlns="http://www.w3.org/2000/svg" width="16" height="15.999" viewBox="0 0 16 15.999"><defs><style>.a{fill:#4ad991;}</style></defs><path class="a" d="M-218-1589v-2h-2v-2h2v-2h2v2h2v2h-2v2Zm-12,0v-1a4.951,4.951,0,0,1,5-5h3v2h-3a2.913,2.913,0,0,0-2.8,2h5.8v2Zm3-11v-1a4.012,4.012,0,0,1,4-4,4.012,4.012,0,0,1,4,4v1a4.012,4.012,0,0,1-4,4A4.012,4.012,0,0,1-227-1600Zm2-1v1a2.006,2.006,0,0,0,2,2,2.006,2.006,0,0,0,2-2v-1a2.006,2.006,0,0,0-2-2A2.006,2.006,0,0,0-225-1601Z" transform="translate(230 1605)"/></svg>