<svg width="22" height="22" viewBox="0 0 22 22" fill="none" xmlns="http://www.w3.org/2000/svg">
<path fill-rule="evenodd" clip-rule="evenodd" d="M10.9999 1.22217C13.7 1.22217 15.8888 3.411 15.8888 6.11106C15.8888 8.81112 13.7 10.9999 10.9999 10.9999C8.29989 10.9999 6.11106 8.81112 6.11106 6.11106C6.11106 3.411 8.29989 1.22217 10.9999 1.22217ZM10.9999 3.66661C9.64992 3.66661 8.5555 4.76103 8.5555 6.11106C8.5555 7.46109 9.64992 8.5555 10.9999 8.5555C12.35 8.5555 13.4444 7.46109 13.4444 6.11106C13.4444 4.76103 12.35 3.66661 10.9999 3.66661ZM10.9999 12.2222C14.2633 12.2222 20.7777 13.8477 20.7777 17.1111V20.7777H1.22217V17.1111C1.22217 13.8477 7.73661 12.2222 10.9999 12.2222ZM10.9999 14.5444C7.36994 14.5444 3.54439 16.3288 3.54439 17.1111V18.4555H18.4555V17.1111C18.4555 16.3288 14.6299 14.5444 10.9999 14.5444Z" fill="white"/>
<mask id="mask0" mask-type="alpha" maskUnits="userSpaceOnUse" x="1" y="1" width="20" height="20">
<path fill-rule="evenodd" clip-rule="evenodd" d="M10.9999 1.22217C13.7 1.22217 15.8888 3.411 15.8888 6.11106C15.8888 8.81112 13.7 10.9999 10.9999 10.9999C8.29989 10.9999 6.11106 8.81112 6.11106 6.11106C6.11106 3.411 8.29989 1.22217 10.9999 1.22217ZM10.9999 3.66661C9.64992 3.66661 8.5555 4.76103 8.5555 6.11106C8.5555 7.46109 9.64992 8.5555 10.9999 8.5555C12.35 8.5555 13.4444 7.46109 13.4444 6.11106C13.4444 4.76103 12.35 3.66661 10.9999 3.66661ZM10.9999 12.2222C14.2633 12.2222 20.7777 13.8477 20.7777 17.1111V20.7777H1.22217V17.1111C1.22217 13.8477 7.73661 12.2222 10.9999 12.2222ZM10.9999 14.5444C7.36994 14.5444 3.54439 16.3288 3.54439 17.1111V18.4555H18.4555V17.1111C18.4555 16.3288 14.6299 14.5444 10.9999 14.5444Z" fill="white"/>
</mask>
<g mask="url(#mask0)">
</g>
</svg>
